<?xml version="1.0" encoding="utf-8"?>
<svg version="1.1" id="Layer_1" xmlns="http://www.w3.org/2000/svg" xmlns:xlink="http://www.w3.org/1999/xlink" x="0px" y="0px"
	 viewBox="0 0 176 120" style="enable-background:new 0 0 176 120;" xml:space="preserve">
<style type="text/css">
	.st0{fill:#FFD900;}
</style>
<g>
	<path d="M53.3,41.2c-2.8-2.8-7.1-4.2-12.8-4.2c-2.9,0-5.4,0.4-7.6,1.1V22.6h-9.4v30v28.1c0,4.8,1.4,8.6,4.2,11.5
		c2.8,2.8,7.1,4.2,12.8,4.2s10-1.4,12.8-4.2c2.8-2.8,4.2-6.7,4.2-11.5V52.6C57.6,47.8,56.1,44,53.3,41.2z M48.2,80.5
		c0,5.1-2.6,7.7-7.7,7.7s-7.7-2.6-7.7-7.7V52.8c0-5.1,2.6-7.7,7.7-7.7s7.7,2.6,7.7,7.7V80.5z"/>
	<g>
		<path d="M109.4,22.6h9.4v73.8c0,0-9.4-1-9.4-9.2C109.4,83.9,109.4,22.6,109.4,22.6z"/>
		<path d="M92.1,36.9h9.4v59.5c0,0-9.4-1-9.4-9.2C92.1,83.9,92.1,36.9,92.1,36.9z"/>
		<circle class="st0" cx="96.8" cy="28" r="5.3"/>
		<path d="M143.1,36.9h9.4v59.5c0,0-9.4-1-9.4-9.2C143.1,83.9,143.1,36.9,143.1,36.9z"/>
		<circle class="st0" cx="147.8" cy="28" r="5.3"/>
		<path d="M126,22.6h9.4v73.8c0,0-9.4-1-9.4-9.2C126,83.9,126,22.6,126,22.6z"/>
	</g>
	<path d="M85,36.9h2.3v8.9h-3c-3.1,0-6.6,1.3-10.3,3.8v46.8c0,0-9.4-1.2-9.4-9.2s0-50.4,0-50.4h9v4.5C75,40,78.5,36.9,85,36.9z"/>
</g>
</svg>
