<svg version="1.1" id="Layer_1" xmlns="http://www.w3.org/2000/svg" x="0" y="0" viewBox="0 0 176 120" xml:space="preserve"><style>.st0{fill:#231f20}</style><path class="st0" d="M53.3 41.2c-2.8-2.8-7.1-4.2-12.8-4.2-2.9 0-5.4.4-7.6 1.1V22.6h-9.4v58.1c0 4.8 1.4 8.6 4.2 11.5 2.8 2.8 7.1 4.2 12.8 4.2s10-1.4 12.8-4.2c2.8-2.8 4.2-6.7 4.2-11.5V52.6c.1-4.8-1.4-8.6-4.2-11.4zm-5.1 39.3c0 5.1-2.6 7.7-7.7 7.7s-7.7-2.6-7.7-7.7V52.8c0-5.1 2.6-7.7 7.7-7.7s7.7 2.6 7.7 7.7v27.7zm61.2-57.9h9.4v73.8s-9.4-1-9.4-9.2V22.6zM92.1 36.9h9.4v59.5s-9.4-1-9.4-9.2V36.9z"/><circle class="st0" cx="96.8" cy="28" r="5.3"/><path class="st0" d="M143.1 36.9h9.4v59.5s-9.4-1-9.4-9.2V36.9z"/><circle class="st0" cx="147.8" cy="28" r="5.3"/><path class="st0" d="M126 22.6h9.4v73.8s-9.4-1-9.4-9.2V22.6zM85 36.9h2.3v8.9h-3c-3.1 0-6.6 1.3-10.3 3.8v46.8s-9.4-1.2-9.4-9.2V36.8h9v4.5C75 40 78.5 36.9 85 36.9z"/></svg>