<?xml version="1.0" encoding="utf-8"?>
<svg version="1.1" id="Layer_1" xmlns="http://www.w3.org/2000/svg" xmlns:xlink="http://www.w3.org/1999/xlink" x="0px" y="0px"
	 viewBox="0 0 87 39" style="enable-background:new 0 0 87 39;" xml:space="preserve">
<g>
	<g transform="translate(23 12)">
		<path d="M25.8,15.1c-0.3,0-0.5-0.1-0.7-0.3c-0.4-0.4-0.4-1,0-1.4L31.5,7l-6.4-6.3c-0.4-0.4-0.4-1,0-1.4s1-0.4,1.4,0l7,7
			c0.4,0.4,0.4,1,0,1.4l-7,7C26.3,15,26.1,15.1,25.8,15.1z"/>
		<path d="M32.9,8H8.1c-0.6,0-1-0.4-1-1s0.4-1,1-1h24.8c0.6,0,1,0.4,1,1S33.4,8,32.9,8z"/>
	</g>
</g>
</svg>
