<?xml version="1.0" encoding="utf-8"?>
<svg version="1.1" baseProfile="tiny" id="Layer_1" xmlns="http://www.w3.org/2000/svg" xmlns:xlink="http://www.w3.org/1999/xlink"
	 x="0px" y="0px" viewBox="0 0 30 30" xml:space="preserve">
<path fill-rule="evenodd" d="M30,3.8v18c0,0.2,0,0.3-0.1,0.5c0,0.1-0.1,0.2-0.2,0.3c-0.1,0.1-0.2,0.2-0.3,0.2
	c-0.1,0.1-0.2,0.1-0.4,0.1c-0.2,0-0.3,0-0.4,0s-0.2,0-0.4,0c-0.2,0-0.3,0-0.4,0c0,1.2-0.4,2.3-1.3,3.2c-0.9,0.9-1.9,1.3-3.1,1.3
	c-1.2,0-2.3-0.4-3.2-1.3c-0.9-0.9-1.3-1.9-1.3-3.2h-6.7c0,1.2-0.4,2.3-1.3,3.2C10,26.9,9,27.3,7.8,27.4c-1.2,0-2.3-0.4-3.2-1.3
	c-0.9-0.9-1.3-1.9-1.3-3.2H2.2c0,0-0.2,0-0.4,0c-0.2,0-0.4,0-0.4,0c-0.1,0-0.2,0-0.4,0c-0.2,0-0.3-0.1-0.4-0.1
	c-0.1-0.1-0.2-0.1-0.3-0.2c-0.1-0.1-0.2-0.2-0.2-0.3C0,22.1,0,21.9,0,21.7c0-0.3,0.1-0.6,0.3-0.8c0.2-0.2,0.5-0.3,0.8-0.3V15
	c0-0.1,0-0.3,0-0.6c0-0.3,0-0.5,0-0.7c0-0.1,0-0.3,0-0.6c0-0.3,0.1-0.5,0.1-0.7c0.1-0.2,0.1-0.3,0.2-0.5c0.1-0.2,0.2-0.4,0.4-0.5
	l3.4-3.5c0.2-0.2,0.5-0.4,0.9-0.6c0.4-0.2,0.7-0.2,1-0.2H10V3.8c0-0.3,0.1-0.6,0.3-0.8c0.2-0.2,0.5-0.3,0.8-0.3h17.8
	c0.3,0,0.6,0.1,0.8,0.3C29.9,3.2,30,3.5,30,3.8 M25.6,22.9c0-0.6-0.2-1.1-0.7-1.6c-0.4-0.4-1-0.7-1.6-0.7c-0.6,0-1.1,0.2-1.6,0.7
	c-0.4,0.4-0.7,1-0.7,1.6c0,0.6,0.2,1.1,0.7,1.6c0.4,0.4,1,0.7,1.6,0.7c0.6,0,1.1-0.2,1.6-0.7C25.3,24,25.5,23.5,25.6,22.9 M3.3,13.9
	H10V9.4H7.3C7.1,9.4,7,9.4,6.9,9.5L3.5,13c-0.1,0.1-0.2,0.2-0.2,0.4V13.9 M10,22.9c0-0.6-0.2-1.1-0.7-1.6c-0.4-0.4-1-0.7-1.6-0.7
	s-1.1,0.2-1.6,0.7c-0.4,0.4-0.7,1-0.7,1.6c0,0.6,0.2,1.1,0.7,1.6c0.4,0.4,1,0.7,1.6,0.7c0.6,0,1.1-0.2,1.6-0.7
	C9.8,24,10,23.5,10,22.9"/>
</svg>
