<?xml version="1.0" encoding="utf-8"?>
<svg version="1.1" baseProfile="tiny" id="Layer_1" xmlns="http://www.w3.org/2000/svg" xmlns:xlink="http://www.w3.org/1999/xlink"
	 x="0px" y="0px" viewBox="0 0 12.2 16" xml:space="preserve">
<path fill="#FFFFFF" d="M12.2,8.4c0-0.7-0.6-1.3-1.3-1.3c0,0,0,0,0,0l0-1.5c0-1.7-0.1-2-0.5-2.8C9.8,1.4,8.6,0.5,7.2,0.1
	C5.5-0.3,3.5,0.4,2.4,1.7C2,2.2,1.6,3,1.4,3.6c-0.1,0.3-0.1,0.8-0.1,2l0,1.5c0,0,0,0,0,0C0.6,7.2,0,7.7,0,8.4l0,0v2v1.2v3.1
	C0,15.4,0.5,16,1.2,16l0,0h9.6v0c0,0,0,0,0.1,0c0.7,0,1.3-0.6,1.3-1.3c0,0,0,0,0,0v-1.8c0-0.4,0-0.8,0-1.3V8.4L12.2,8.4
	C12.2,8.5,12.2,8.4,12.2,8.4z M7.1,12.3l-0.3,0.3v0.8v0.8H6.1H5.3v-0.8v-0.8l-0.2-0.2c-0.5-0.4-0.7-1.2-0.3-1.8
	c0.2-0.4,0.4-0.6,0.8-0.7C5.7,9.8,6,9.7,6.2,9.7C7.5,9.9,8,11.4,7.1,12.3z M6.1,7.2H3.8V5.9c0-0.7,0-1.4,0.1-1.6
	C4,3.6,4.6,2.8,5.3,2.6c0.4-0.2,1.3-0.1,1.8,0.1c0.4,0.2,0.9,0.7,1.1,1.1c0.2,0.4,0.2,0.4,0.2,1.8l0,1.5H6.1z"/>
</svg>
