<?xml version="1.0" encoding="utf-8"?>
<svg version="1.1" baseProfile="tiny" id="Layer_1" xmlns="http://www.w3.org/2000/svg" xmlns:xlink="http://www.w3.org/1999/xlink"
	 x="0px" y="0px" viewBox="0 0 30 30" xml:space="preserve">
<path fill-rule="evenodd" d="M11.5,25.2l3.9,1.7L11.8,30L11.5,25.2 M26.1,15.8l-1.6-4l4.7,0.3L26.1,15.8 M24.5,22.9l1.6-4l3.1,3.7
	L24.5,22.9 M18.4,26.8l3.9-1.7L22,30L18.4,26.8 M24.6,17.3c0,4.4-3.4,7.9-7.7,7.9c-1.7,0-3.3-0.6-4.6-1.5l10.7-11.1
	C24,14,24.6,15.6,24.6,17.3 M11.4,11.6l-1.6-1.1l-1.6,1.1l0.5-1.9L7.2,8.6l1.9-0.1l0.6-1.9l0.7,1.8l1.9,0l-1.5,1.3L11.4,11.6
	 M16,6.4L14,5.1l-2,1.4l0.6-2.5l-1.9-1.5l2.4-0.2L13.9,0l0.9,2.3l2.4,0L15.3,4L16,6.4 M24.7,2.9l2,2.1L4.9,27.4l-2-2.1L24.7,2.9
	 M8.5,0.8C6,2.4,4.3,5.3,4.3,8.7S6,15,8.6,16.6c-4.3,0-7.7-3.5-7.7-7.9C0.8,4.3,4.3,0.8,8.5,0.8"/>
</svg>
