<?xml version="1.0" encoding="utf-8"?>
<svg version="1.1" id="Layer_1" xmlns="http://www.w3.org/2000/svg" xmlns:xlink="http://www.w3.org/1999/xlink" x="0px" y="0px"
	 viewBox="0 0 30 30" style="enable-background:new 0 0 30 30;" xml:space="preserve">
<polygon points="4,16.4 12,19.5 20.2,16.4 12.1,13.6 "/>
<polygon points="2.9,17.8 2.9,27 11.3,30.1 11.3,20.9 "/>
<polygon points="21.3,17.8 21.3,27 12.8,30.1 12.8,20.9 "/>
<path d="M28.5,13c-0.5-3.2-3.4-6.5-7.1-7.9C15.8,2.9,8.9,3.4,8.9,3.4V0L1.2,5.8l7.7,5.9V8.2c2,0.1,13.2,0.7,16.2,5.5
	c3.1,5-1.6,8.8-1.6,8.8l0.6,1C24,23.6,29.7,21,28.5,13z"/>
</svg>
