<?xml version="1.0" encoding="utf-8"?>
<svg version="1.1" baseProfile="tiny" id="Layer_1" xmlns="http://www.w3.org/2000/svg" xmlns:xlink="http://www.w3.org/1999/xlink"
	 x="0px" y="0px" viewBox="0 0 30 30" xml:space="preserve">
<path fill-rule="evenodd" d="M13.6,23.2h2.7v-2.9c2.4-0.6,4.1-2.7,4.1-5.3c0-3-2.4-5.5-5.5-5.5c-3,0-5.5,2.4-5.5,5.5
	c0,2.5,1.7,4.7,4.1,5.3V23.2 M17.7,27.3v1.4c0,0.8-0.6,1.4-1.4,1.4h-2.7c-0.8,0-1.4-0.6-1.4-1.4v-1.4H17.7 M15,6.8
	c4.5,0,8.2,3.7,8.2,8.2c0,3-1.6,5.7-4.1,7.1v2.5c0,0.8-0.6,1.4-1.4,1.4h-5.5c-0.8,0-1.4-0.6-1.4-1.4v-2.5C8.5,20.7,6.8,18,6.8,15
	C6.8,10.5,10.5,6.8,15,6.8 M21.7,6.3l2.9-2.9l2,1.9l-2.9,2.9L21.7,6.3 M5.3,3.4l2.9,2.9L6.3,8.2L3.4,5.4L5.3,3.4 M16.4,0v4.1h-2.7V0
	H16.4 M0,13.6h4.1v2.7H0V13.6 M25.9,13.6H30v2.7h-4.1V13.6"/>
</svg>
